<?xml version="1.0" encoding="utf-8" standalone="no"?>
<!DOCTYPE svg PUBLIC "-//W3C//DTD SVG 1.1//EN"
  "http://www.w3.org/Graphics/SVG/1.1/DTD/svg11.dtd">
<!-- Created with matplotlib (https://matplotlib.org/) -->
<svg height="345.6pt" version="1.1" viewBox="0 0 460.8 345.6" width="460.8pt" xmlns="http://www.w3.org/2000/svg" xmlns:xlink="http://www.w3.org/1999/xlink">
 <metadata>
  <rdf:RDF xmlns:cc="http://creativecommons.org/ns#" xmlns:dc="http://purl.org/dc/elements/1.1/" xmlns:rdf="http://www.w3.org/1999/02/22-rdf-syntax-ns#">
   <cc:Work>
    <dc:type rdf:resource="http://purl.org/dc/dcmitype/StillImage"/>
    <dc:date>2021-05-18T09:57:09.387399</dc:date>
    <dc:format>image/svg+xml</dc:format>
    <dc:creator>
     <cc:Agent>
      <dc:title>Matplotlib v3.3.3, https://matplotlib.org/</dc:title>
     </cc:Agent>
    </dc:creator>
   </cc:Work>
  </rdf:RDF>
 </metadata>
 <defs>
  <style type="text/css">*{stroke-linecap:butt;stroke-linejoin:round;}</style>
 </defs>
 <g id="figure_1">
  <g id="patch_1">
   <path d="M 0 345.6 
L 460.8 345.6 
L 460.8 0 
L 0 0 
z
" style="fill:#ffffff;"/>
  </g>
  <g id="axes_1">
   <g id="patch_2">
    <path d="M 57.6 307.584 
L 414.72 307.584 
L 414.72 41.472 
L 57.6 41.472 
z
" style="fill:#ffffff;"/>
   </g>
   <g id="matplotlib.axis_1">
    <g id="xtick_1">
     <g id="line2d_1">
      <path clip-path="url(#p451e424bc6)" d="M 57.6 307.584 
L 57.6 41.472 
" style="fill:none;stroke:#b0b0b0;stroke-linecap:square;stroke-width:0.6;"/>
     </g>
     <g id="line2d_2">
      <defs>
       <path d="M 0 0 
L 0 3.5 
" id="mcfeac0a2fc" style="stroke:#000000;stroke-width:0.8;"/>
      </defs>
      <g>
       <use style="stroke:#000000;stroke-width:0.8;" x="57.6" xlink:href="#mcfeac0a2fc" y="307.584"/>
      </g>
     </g>
     <g id="text_1">
      <!-- −5 -->
      <g transform="translate(50.228906 322.182437)scale(0.1 -0.1)">
       <defs>
        <path d="M 10.59375 35.5 
L 73.1875 35.5 
L 73.1875 27.203125 
L 10.59375 27.203125 
z
" id="DejaVuSans-8722"/>
        <path d="M 10.796875 72.90625 
L 49.515625 72.90625 
L 49.515625 64.59375 
L 19.828125 64.59375 
L 19.828125 46.734375 
Q 21.96875 47.46875 24.109375 47.828125 
Q 26.265625 48.1875 28.421875 48.1875 
Q 40.625 48.1875 47.75 41.5 
Q 54.890625 34.8125 54.890625 23.390625 
Q 54.890625 11.625 47.5625 5.09375 
Q 40.234375 -1.421875 26.90625 -1.421875 
Q 22.3125 -1.421875 17.546875 -0.640625 
Q 12.796875 0.140625 7.71875 1.703125 
L 7.71875 11.625 
Q 12.109375 9.234375 16.796875 8.0625 
Q 21.484375 6.890625 26.703125 6.890625 
Q 35.15625 6.890625 40.078125 11.328125 
Q 45.015625 15.765625 45.015625 23.390625 
Q 45.015625 31 40.078125 35.4375 
Q 35.15625 39.890625 26.703125 39.890625 
Q 22.75 39.890625 18.8125 39.015625 
Q 14.890625 38.140625 10.796875 36.28125 
z
" id="DejaVuSans-53"/>
       </defs>
       <use xlink:href="#DejaVuSans-8722"/>
       <use x="83.789062" xlink:href="#DejaVuSans-53"/>
      </g>
     </g>
    </g>
    <g id="xtick_2">
     <g id="line2d_3">
      <path clip-path="url(#p451e424bc6)" d="M 146.88 307.584 
L 146.88 41.472 
" style="fill:none;stroke:#b0b0b0;stroke-linecap:square;stroke-width:0.6;"/>
     </g>
     <g id="line2d_4">
      <g>
       <use style="stroke:#000000;stroke-width:0.8;" x="146.88" xlink:href="#mcfeac0a2fc" y="307.584"/>
      </g>
     </g>
     <g id="text_2">
      <!-- 0 -->
      <g transform="translate(143.69875 322.182437)scale(0.1 -0.1)">
       <defs>
        <path d="M 31.78125 66.40625 
Q 24.171875 66.40625 20.328125 58.90625 
Q 16.5 51.421875 16.5 36.375 
Q 16.5 21.390625 20.328125 13.890625 
Q 24.171875 6.390625 31.78125 6.390625 
Q 39.453125 6.390625 43.28125 13.890625 
Q 47.125 21.390625 47.125 36.375 
Q 47.125 51.421875 43.28125 58.90625 
Q 39.453125 66.40625 31.78125 66.40625 
z
M 31.78125 74.21875 
Q 44.046875 74.21875 50.515625 64.515625 
Q 56.984375 54.828125 56.984375 36.375 
Q 56.984375 17.96875 50.515625 8.265625 
Q 44.046875 -1.421875 31.78125 -1.421875 
Q 19.53125 -1.421875 13.0625 8.265625 
Q 6.59375 17.96875 6.59375 36.375 
Q 6.59375 54.828125 13.0625 64.515625 
Q 19.53125 74.21875 31.78125 74.21875 
z
" id="DejaVuSans-48"/>
       </defs>
       <use xlink:href="#DejaVuSans-48"/>
      </g>
     </g>
    </g>
    <g id="xtick_3">
     <g id="line2d_5">
      <path clip-path="url(#p451e424bc6)" d="M 236.16 307.584 
L 236.16 41.472 
" style="fill:none;stroke:#b0b0b0;stroke-linecap:square;stroke-width:0.6;"/>
     </g>
     <g id="line2d_6">
      <g>
       <use style="stroke:#000000;stroke-width:0.8;" x="236.16" xlink:href="#mcfeac0a2fc" y="307.584"/>
      </g>
     </g>
     <g id="text_3">
      <!-- 5 -->
      <g transform="translate(232.97875 322.182437)scale(0.1 -0.1)">
       <use xlink:href="#DejaVuSans-53"/>
      </g>
     </g>
    </g>
    <g id="xtick_4">
     <g id="line2d_7">
      <path clip-path="url(#p451e424bc6)" d="M 325.44 307.584 
L 325.44 41.472 
" style="fill:none;stroke:#b0b0b0;stroke-linecap:square;stroke-width:0.6;"/>
     </g>
     <g id="line2d_8">
      <g>
       <use style="stroke:#000000;stroke-width:0.8;" x="325.44" xlink:href="#mcfeac0a2fc" y="307.584"/>
      </g>
     </g>
     <g id="text_4">
      <!-- 10 -->
      <g transform="translate(319.0775 322.182437)scale(0.1 -0.1)">
       <defs>
        <path d="M 12.40625 8.296875 
L 28.515625 8.296875 
L 28.515625 63.921875 
L 10.984375 60.40625 
L 10.984375 69.390625 
L 28.421875 72.90625 
L 38.28125 72.90625 
L 38.28125 8.296875 
L 54.390625 8.296875 
L 54.390625 0 
L 12.40625 0 
z
" id="DejaVuSans-49"/>
       </defs>
       <use xlink:href="#DejaVuSans-49"/>
       <use x="63.623047" xlink:href="#DejaVuSans-48"/>
      </g>
     </g>
    </g>
    <g id="xtick_5">
     <g id="line2d_9">
      <path clip-path="url(#p451e424bc6)" d="M 414.72 307.584 
L 414.72 41.472 
" style="fill:none;stroke:#b0b0b0;stroke-linecap:square;stroke-width:0.6;"/>
     </g>
     <g id="line2d_10">
      <g>
       <use style="stroke:#000000;stroke-width:0.8;" x="414.72" xlink:href="#mcfeac0a2fc" y="307.584"/>
      </g>
     </g>
     <g id="text_5">
      <!-- 15 -->
      <g transform="translate(408.3575 322.182437)scale(0.1 -0.1)">
       <use xlink:href="#DejaVuSans-49"/>
       <use x="63.623047" xlink:href="#DejaVuSans-53"/>
      </g>
     </g>
    </g>
    <g id="text_6">
     <!-- 信噪比 SNR -->
     <g transform="translate(184.91 341.70275)scale(0.2 -0.2)">
      <defs>
       <path d="M 58.09375 76.703125 
Q 63.796875 73.09375 66.1875 70.796875 
Q 68.59375 68.5 68.59375 66.34375 
Q 68.59375 64.203125 67.140625 62.390625 
Q 65.703125 60.59375 64.25 60.59375 
Q 62.796875 60.59375 62.796875 63.390625 
Q 62.796875 66.203125 61.140625 69.796875 
Q 59.5 73.40625 57.09375 75.796875 
z
M 27.203125 76.703125 
L 33.296875 72.59375 
Q 34.296875 71.90625 34.296875 71.453125 
Q 34.296875 71 33.046875 70.5 
Q 31.796875 70 31.25 69.390625 
Q 30.703125 68.796875 29.90625 66.90625 
Q 26.296875 58.296875 21.40625 49 
L 23.90625 48.296875 
Q 24.703125 48.09375 24.703125 47.75 
Q 24.703125 47.40625 24.203125 47 
L 22.703125 45.90625 
L 22.703125 4.5 
Q 22.703125 -3.296875 22.890625 -7.59375 
Q 23.09375 -11.90625 23.09375 -12.296875 
Q 23.09375 -13.796875 20.9375 -15 
Q 18.796875 -16.203125 18.1875 -16.203125 
Q 17.59375 -16.203125 17.59375 -14.296875 
L 17.796875 -6.40625 
Q 18 -1.796875 18 4.703125 
L 18 43.09375 
Q 11.296875 31.703125 3.90625 23.09375 
L 2.703125 24 
Q 18.796875 47.90625 27.203125 76.703125 
z
M 96 59.09375 
Q 97.203125 58 97.203125 57.453125 
Q 97.203125 56.90625 95.59375 56.90625 
L 42.296875 56.90625 
Q 38.40625 56.90625 35.59375 55.796875 
L 32.796875 59.5 
Q 37.59375 59.09375 40.09375 59.09375 
L 86.09375 59.09375 
L 89.796875 64.59375 
z
M 87.59375 44.90625 
Q 88.703125 43.90625 88.703125 43.296875 
Q 88.703125 42.703125 87.203125 42.703125 
L 47.296875 42.703125 
Q 43.40625 42.703125 40.59375 41.59375 
L 37.796875 45.296875 
Q 42.59375 44.90625 45.09375 44.90625 
L 78.703125 44.90625 
L 82 49.796875 
z
M 90 31.796875 
Q 91.09375 30.796875 91.09375 30.1875 
Q 91.09375 29.59375 89.59375 29.59375 
L 44.90625 29.59375 
Q 41 29.59375 38.203125 28.5 
L 35.40625 32.203125 
Q 40.203125 31.796875 42.703125 31.796875 
L 81.09375 31.796875 
L 84.40625 36.703125 
z
M 86.296875 17.59375 
Q 87 17 87 16.546875 
Q 87 16.09375 86.203125 15.5 
L 84.09375 14 
L 84.09375 -0.296875 
Q 84.09375 -5 84.25 -8.203125 
Q 84.40625 -11.40625 84.40625 -11.59375 
Q 84.40625 -13 82.453125 -14.140625 
Q 80.5 -15.296875 79.890625 -15.296875 
Q 79.296875 -15.296875 79.296875 -13.796875 
L 79.296875 -5.703125 
L 46.59375 -5.703125 
L 46.59375 -12.203125 
Q 46.59375 -13.296875 44.546875 -14.4375 
Q 42.5 -15.59375 42 -15.59375 
Q 41.5 -15.59375 41.5 -14.203125 
L 41.703125 -8.59375 
Q 41.796875 -5.203125 41.796875 -0.796875 
L 41.796875 12.703125 
Q 41.796875 18.09375 41.5 23 
L 47.90625 18 
L 77.296875 18 
L 80.5 22.203125 
z
M 79.296875 -3.5 
L 79.296875 15.796875 
L 46.59375 15.796875 
L 46.59375 -3.5 
z
" id="STSong-20449"/>
       <path d="M 80.296875 70.203125 
Q 80.90625 69.796875 80.90625 69.5 
Q 80.90625 69.203125 80.09375 68.703125 
L 78 67.40625 
L 78 61.40625 
Q 78 57.203125 78.09375 55.796875 
L 78.203125 53.40625 
Q 78.203125 52.40625 76.34375 51.65625 
Q 74.5 50.90625 74 50.90625 
Q 73.5 50.90625 73.5 52.5 
L 73.5 54.796875 
L 50.203125 54.796875 
L 50.203125 52.296875 
Q 50.203125 51 48.390625 50.140625 
Q 46.59375 49.296875 45.9375 49.296875 
Q 45.296875 49.296875 45.5 50.796875 
Q 45.796875 53.5 45.796875 56.90625 
L 45.796875 65 
Q 45.796875 70.09375 45.5 75 
L 51.09375 70.59375 
L 72.09375 70.59375 
L 74.59375 74.203125 
z
M 73.5 56.796875 
L 73.5 68.59375 
L 50.203125 68.59375 
L 50.203125 56.796875 
z
M 31.09375 61.09375 
L 28.40625 59.5 
L 28.40625 25.59375 
Q 28.40625 22.5 28.59375 19.296875 
L 28.90625 13.59375 
Q 28.90625 11.90625 26.90625 11.15625 
Q 24.90625 10.40625 24.40625 10.40625 
Q 23.90625 10.40625 23.90625 11.703125 
L 23.90625 20.203125 
L 13.5 20.203125 
L 13.5 10.59375 
Q 13.5 9.5 11.75 8.890625 
Q 10 8.296875 9.703125 8.296875 
Q 8.90625 8.296875 8.90625 10.40625 
L 9.09375 18.296875 
Q 9.203125 23.09375 9.203125 29.296875 
L 9.203125 57.5 
Q 9.203125 62.59375 8.90625 67.5 
L 14 63 
L 22.59375 63 
L 25.40625 67.09375 
L 31 62.90625 
Q 31.703125 62.40625 31.703125 61.953125 
Q 31.703125 61.5 31.09375 61.09375 
z
M 23.90625 22.203125 
L 23.90625 61 
L 13.5 61 
L 13.5 22.203125 
z
M 89.90625 45.5 
Q 90.203125 45.296875 90.203125 45 
Q 90.203125 44.703125 89.703125 44.40625 
L 87.296875 42.796875 
L 87.296875 35.59375 
Q 87.296875 32.5 87.4375 29.796875 
Q 87.59375 27.09375 87.59375 26.90625 
Q 87.59375 26 85.796875 25.09375 
Q 84 24.203125 83.453125 24.203125 
Q 82.90625 24.203125 82.90625 25.40625 
L 82.90625 28.5 
L 71.09375 28.5 
L 71.09375 27.5 
Q 71.09375 26.296875 69.34375 25.6875 
Q 67.59375 25.09375 67.046875 25.09375 
Q 66.5 25.09375 66.59375 26.296875 
Q 66.90625 29.296875 66.90625 32.703125 
L 66.90625 43 
Q 66.90625 47.296875 66.59375 50.703125 
L 71.90625 46.203125 
L 82 46.203125 
L 84.09375 49.703125 
z
M 82.90625 30.5 
L 82.90625 44.203125 
L 71.09375 44.203125 
L 71.09375 30.5 
z
M 59.40625 45.40625 
Q 59.90625 45.09375 59.90625 44.890625 
Q 59.90625 44.703125 59.703125 44.59375 
L 57.09375 43 
L 57.09375 35.703125 
Q 57.09375 33.203125 57.203125 30.90625 
L 57.40625 27.09375 
Q 57.40625 26.09375 55.546875 25.1875 
Q 53.703125 24.296875 53.203125 24.296875 
Q 52.703125 24.296875 52.703125 25.5 
L 52.703125 28.296875 
L 41.90625 28.296875 
L 41.90625 24.203125 
Q 41.90625 22.90625 40.203125 22.203125 
Q 38.5 21.5 37.953125 21.5 
Q 37.40625 21.5 37.40625 22.59375 
L 37.703125 29.40625 
L 37.703125 42.296875 
Q 37.703125 46.59375 37.40625 50 
L 42.59375 45.90625 
L 51.40625 45.90625 
L 53.5 49.5 
z
M 52.703125 30.296875 
L 52.703125 43.90625 
L 41.90625 43.90625 
L 41.90625 30.296875 
z
M 96.5 -5.59375 
Q 90.203125 -5.203125 87.90625 -8.203125 
Q 87.59375 -8.59375 87.203125 -8.59375 
Q 86.203125 -8.59375 78.296875 -2.25 
Q 70.40625 4.09375 65.59375 15 
L 63.59375 15 
L 63.59375 -2.203125 
Q 63.59375 -6.5 63.75 -9.390625 
Q 63.90625 -12.296875 63.90625 -12.59375 
Q 63.90625 -13.90625 61.84375 -14.90625 
Q 59.796875 -15.90625 59.09375 -15.90625 
Q 58.40625 -15.90625 58.59375 -13.5 
Q 59.09375 -7.703125 59.09375 -2.09375 
L 59.09375 15 
L 57.796875 15 
Q 44.296875 -2.40625 23.90625 -13.40625 
L 23 -12.296875 
Q 42.59375 1 51.703125 15 
L 38.40625 15 
Q 35.296875 15 33.40625 14.09375 
L 31.296875 17.296875 
Q 34.90625 17 36.703125 17 
L 59.09375 17 
Q 59.09375 22.203125 58.90625 27.703125 
L 65.59375 24.59375 
Q 66.296875 24.296875 66.296875 24.046875 
Q 66.296875 23.796875 65.40625 23.40625 
L 63.59375 22.59375 
L 63.59375 17 
L 83.296875 17 
L 87.5 22.296875 
L 93.5 16.5 
Q 94.296875 15.703125 94.296875 15.34375 
Q 94.296875 15 92.796875 15 
L 67.5 15 
Q 76.09375 0.09375 96.5 -4 
z
" id="STSong-22122"/>
       <path d="M 90.40625 15.40625 
Q 90.296875 7.90625 91.140625 3.703125 
Q 92 -0.5 94.296875 -1.796875 
Q 94.796875 -2.09375 94.796875 -2.75 
Q 94.796875 -3.40625 93.390625 -5.59375 
Q 92 -7.796875 89.640625 -8.84375 
Q 87.296875 -9.90625 82.796875 -10.15625 
Q 78.296875 -10.40625 71.1875 -10.40625 
Q 64.09375 -10.40625 60.09375 -10.34375 
Q 56.09375 -10.296875 54 -8.5 
Q 51.90625 -6.703125 51.90625 -3.203125 
L 51.90625 63 
Q 51.90625 70.796875 51.59375 76.203125 
L 59.40625 72.203125 
Q 60.5 71.59375 60.5 71.09375 
Q 60.5 70.59375 59.5 70 
L 56.5 68.203125 
L 56.5 33.5 
Q 61.90625 37.203125 70.40625 44.703125 
Q 78.90625 52.203125 83.796875 57.40625 
L 88.703125 52.296875 
Q 89.203125 51.796875 89.203125 51.390625 
Q 89.203125 51 88.203125 50.90625 
Q 84.90625 50.59375 81.5 47.9375 
Q 78.09375 45.296875 56.5 30.90625 
L 56.5 -2.5 
Q 56.5 -4.5 58.5 -5.34375 
Q 60.5 -6.203125 65.796875 -6.203125 
Q 71.09375 -6.203125 76.546875 -5.953125 
Q 82 -5.703125 83.59375 -5.390625 
Q 85.203125 -5.09375 86.25 -3.546875 
Q 87.296875 -2 87.9375 2.140625 
Q 88.59375 6.296875 88.90625 15.40625 
z
M 47.59375 4.09375 
Q 21.296875 -7 18.203125 -10.703125 
Q 17.703125 -11.296875 17.390625 -11.296875 
Q 17.09375 -11.296875 16.796875 -10.90625 
L 12.40625 -6.296875 
Q 16.703125 -4 16.703125 -1.203125 
L 16.703125 59.09375 
Q 16.703125 66.90625 16.40625 72.296875 
L 23.796875 68 
Q 25 67.296875 25 66.796875 
Q 25 66.296875 23.90625 65.59375 
L 21.40625 64.09375 
L 21.40625 38.90625 
L 37.203125 38.90625 
L 41.203125 44.40625 
L 45.90625 38.703125 
Q 46.796875 37.703125 46.796875 37.203125 
Q 46.796875 36.703125 45.59375 36.703125 
L 21.40625 36.703125 
L 21.40625 -2.59375 
L 47 5.296875 
z
" id="STSong-27604"/>
       <path id="STSong-32"/>
       <path d="M 37.59375 47.703125 
Q 34.703125 60.796875 23.203125 60.796875 
Q 17.796875 60.796875 14.140625 57.6875 
Q 10.5 54.59375 10.5 50.40625 
Q 10.5 47.09375 13.453125 44.296875 
Q 16.40625 41.5 25.703125 36.703125 
Q 35.203125 31.796875 39.453125 28.09375 
Q 43.703125 24.40625 43.703125 17.09375 
Q 43.703125 8.703125 37.84375 3.546875 
Q 32 -1.59375 21.5 -1.59375 
Q 11.796875 -1.59375 3.796875 3.09375 
L 4.90625 18 
L 6.296875 18 
Q 7.203125 10.59375 12.296875 5.84375 
Q 17.40625 1.09375 23.59375 1.09375 
Q 29.5 1.09375 33.546875 4.59375 
Q 37.59375 8.09375 37.59375 13 
Q 37.59375 17.40625 34.34375 20.40625 
Q 31.09375 23.40625 23.59375 27.296875 
Q 13.203125 32.703125 9.09375 37.09375 
Q 5 41.5 5 47.203125 
Q 5 54.296875 10.5 58.890625 
Q 16 63.5 24.796875 63.5 
Q 33.59375 63.5 39.296875 59.09375 
L 38.90625 47.703125 
z
" id="STSong-83"/>
       <path d="M 14.796875 6.703125 
Q 14.796875 4.203125 15.390625 3.34375 
Q 16 2.5 17.90625 2.296875 
L 27.09375 1.296875 
L 27.09375 -0.296875 
Q 21.09375 0 14.203125 0 
Q 9.09375 0 1.203125 -0.296875 
L 1.203125 1.296875 
L 6.703125 2.296875 
Q 10.09375 2.90625 11.046875 3.703125 
Q 12 4.5 12 6.703125 
L 12 50.296875 
Q 12 54.90625 11 57.203125 
Q 10 59.5 7.203125 59.90625 
L 1.296875 60.796875 
L 1.296875 62.5 
L 13.296875 62.5 
Q 15.40625 62.5 16.25 62 
Q 17.09375 61.5 18.59375 59.90625 
L 63.796875 10.59375 
L 62.796875 55.59375 
Q 62.703125 58.40625 61.84375 59.203125 
Q 61 60 59.203125 60.203125 
L 50.59375 61.203125 
L 50.59375 62.796875 
Q 53.40625 62.5 61.40625 62.5 
Q 69.40625 62.5 72.203125 62.796875 
L 72.203125 61.203125 
L 68 60.796875 
Q 66.296875 60.59375 65.890625 59.59375 
Q 65.5 58.59375 65.59375 55.59375 
L 66.59375 -1.296875 
L 64.203125 -1.296875 
L 14.796875 51.703125 
z
" id="STSong-78"/>
       <path d="M 2.09375 1.203125 
L 7.59375 1.796875 
Q 10.5 2.09375 11.453125 2.9375 
Q 12.40625 3.796875 12.40625 7 
L 12.40625 53.796875 
Q 12.40625 56.90625 11.59375 58.203125 
Q 10.796875 59.5 6.90625 60.203125 
L 2.5 61 
L 2.40625 62.5 
Q 6.796875 62.5 8.59375 62.59375 
L 25 63.5 
Q 27 63.59375 28.796875 63.59375 
Q 39.40625 63.59375 44.546875 59.890625 
Q 49.703125 56.203125 49.703125 48.40625 
Q 49.703125 42.5 46.75 39.046875 
Q 43.796875 35.59375 37.703125 32.703125 
L 48.703125 13.203125 
Q 53.203125 5.5 56.140625 3.84375 
Q 59.09375 2.203125 64.09375 1.5 
L 64.09375 -0.09375 
Q 59.90625 0 53.796875 0 
Q 48.703125 0 46.59375 -0.09375 
L 31.296875 28.203125 
Q 29.59375 31.296875 26.296875 31.296875 
L 20.703125 31.296875 
L 20.703125 7.59375 
Q 20.703125 5.203125 21.640625 4.09375 
Q 22.59375 3 25 2.40625 
L 29.90625 1.203125 
L 29.90625 -0.40625 
Q 22.703125 0 16 0 
Q 8.09375 0 2.09375 -0.40625 
z
M 20.703125 34 
Q 40.90625 33.296875 40.90625 46.796875 
Q 40.90625 53 36.34375 56.84375 
Q 31.796875 60.703125 24.09375 60.703125 
Q 22.5 60.703125 20.703125 60.5 
z
" id="STSong-82"/>
      </defs>
      <use xlink:href="#STSong-20449"/>
      <use x="99.999985" xlink:href="#STSong-22122"/>
      <use x="199.999969" xlink:href="#STSong-27604"/>
      <use x="299.999954" xlink:href="#STSong-32"/>
      <use x="324.999939" xlink:href="#STSong-83"/>
      <use x="372.899933" xlink:href="#STSong-78"/>
      <use x="449.999924" xlink:href="#STSong-82"/>
     </g>
    </g>
   </g>
   <g id="matplotlib.axis_2">
    <g id="ytick_1">
     <g id="line2d_11">
      <path clip-path="url(#p451e424bc6)" d="M 57.6 297.728 
L 414.72 297.728 
" style="fill:none;stroke:#b0b0b0;stroke-linecap:square;stroke-width:0.6;"/>
     </g>
     <g id="line2d_12">
      <defs>
       <path d="M 0 0 
L -3.5 0 
" id="m526d09b034" style="stroke:#000000;stroke-width:0.8;"/>
      </defs>
      <g>
       <use style="stroke:#000000;stroke-width:0.8;" x="57.6" xlink:href="#m526d09b034" y="297.728"/>
      </g>
     </g>
     <g id="text_7">
      <!-- 20 -->
      <g transform="translate(37.875 301.527219)scale(0.1 -0.1)">
       <defs>
        <path d="M 19.1875 8.296875 
L 53.609375 8.296875 
L 53.609375 0 
L 7.328125 0 
L 7.328125 8.296875 
Q 12.9375 14.109375 22.625 23.890625 
Q 32.328125 33.6875 34.8125 36.53125 
Q 39.546875 41.84375 41.421875 45.53125 
Q 43.3125 49.21875 43.3125 52.78125 
Q 43.3125 58.59375 39.234375 62.25 
Q 35.15625 65.921875 28.609375 65.921875 
Q 23.96875 65.921875 18.8125 64.3125 
Q 13.671875 62.703125 7.8125 59.421875 
L 7.8125 69.390625 
Q 13.765625 71.78125 18.9375 73 
Q 24.125 74.21875 28.421875 74.21875 
Q 39.75 74.21875 46.484375 68.546875 
Q 53.21875 62.890625 53.21875 53.421875 
Q 53.21875 48.921875 51.53125 44.890625 
Q 49.859375 40.875 45.40625 35.40625 
Q 44.1875 33.984375 37.640625 27.21875 
Q 31.109375 20.453125 19.1875 8.296875 
z
" id="DejaVuSans-50"/>
       </defs>
       <use xlink:href="#DejaVuSans-50"/>
       <use x="63.623047" xlink:href="#DejaVuSans-48"/>
      </g>
     </g>
    </g>
    <g id="ytick_2">
     <g id="line2d_13">
      <path clip-path="url(#p451e424bc6)" d="M 57.6 258.304 
L 414.72 258.304 
" style="fill:none;stroke:#b0b0b0;stroke-linecap:square;stroke-width:0.6;"/>
     </g>
     <g id="line2d_14">
      <g>
       <use style="stroke:#000000;stroke-width:0.8;" x="57.6" xlink:href="#m526d09b034" y="258.304"/>
      </g>
     </g>
     <g id="text_8">
      <!-- 40 -->
      <g transform="translate(37.875 262.103219)scale(0.1 -0.1)">
       <defs>
        <path d="M 37.796875 64.3125 
L 12.890625 25.390625 
L 37.796875 25.390625 
z
M 35.203125 72.90625 
L 47.609375 72.90625 
L 47.609375 25.390625 
L 58.015625 25.390625 
L 58.015625 17.1875 
L 47.609375 17.1875 
L 47.609375 0 
L 37.796875 0 
L 37.796875 17.1875 
L 4.890625 17.1875 
L 4.890625 26.703125 
z
" id="DejaVuSans-52"/>
       </defs>
       <use xlink:href="#DejaVuSans-52"/>
       <use x="63.623047" xlink:href="#DejaVuSans-48"/>
      </g>
     </g>
    </g>
    <g id="ytick_3">
     <g id="line2d_15">
      <path clip-path="url(#p451e424bc6)" d="M 57.6 218.88 
L 414.72 218.88 
" style="fill:none;stroke:#b0b0b0;stroke-linecap:square;stroke-width:0.6;"/>
     </g>
     <g id="line2d_16">
      <g>
       <use style="stroke:#000000;stroke-width:0.8;" x="57.6" xlink:href="#m526d09b034" y="218.88"/>
      </g>
     </g>
     <g id="text_9">
      <!-- 60 -->
      <g transform="translate(37.875 222.679219)scale(0.1 -0.1)">
       <defs>
        <path d="M 33.015625 40.375 
Q 26.375 40.375 22.484375 35.828125 
Q 18.609375 31.296875 18.609375 23.390625 
Q 18.609375 15.53125 22.484375 10.953125 
Q 26.375 6.390625 33.015625 6.390625 
Q 39.65625 6.390625 43.53125 10.953125 
Q 47.40625 15.53125 47.40625 23.390625 
Q 47.40625 31.296875 43.53125 35.828125 
Q 39.65625 40.375 33.015625 40.375 
z
M 52.59375 71.296875 
L 52.59375 62.3125 
Q 48.875 64.0625 45.09375 64.984375 
Q 41.3125 65.921875 37.59375 65.921875 
Q 27.828125 65.921875 22.671875 59.328125 
Q 17.53125 52.734375 16.796875 39.40625 
Q 19.671875 43.65625 24.015625 45.921875 
Q 28.375 48.1875 33.59375 48.1875 
Q 44.578125 48.1875 50.953125 41.515625 
Q 57.328125 34.859375 57.328125 23.390625 
Q 57.328125 12.15625 50.6875 5.359375 
Q 44.046875 -1.421875 33.015625 -1.421875 
Q 20.359375 -1.421875 13.671875 8.265625 
Q 6.984375 17.96875 6.984375 36.375 
Q 6.984375 53.65625 15.1875 63.9375 
Q 23.390625 74.21875 37.203125 74.21875 
Q 40.921875 74.21875 44.703125 73.484375 
Q 48.484375 72.75 52.59375 71.296875 
z
" id="DejaVuSans-54"/>
       </defs>
       <use xlink:href="#DejaVuSans-54"/>
       <use x="63.623047" xlink:href="#DejaVuSans-48"/>
      </g>
     </g>
    </g>
    <g id="ytick_4">
     <g id="line2d_17">
      <path clip-path="url(#p451e424bc6)" d="M 57.6 179.456 
L 414.72 179.456 
" style="fill:none;stroke:#b0b0b0;stroke-linecap:square;stroke-width:0.6;"/>
     </g>
     <g id="line2d_18">
      <g>
       <use style="stroke:#000000;stroke-width:0.8;" x="57.6" xlink:href="#m526d09b034" y="179.456"/>
      </g>
     </g>
     <g id="text_10">
      <!-- 80 -->
      <g transform="translate(37.875 183.255219)scale(0.1 -0.1)">
       <defs>
        <path d="M 31.78125 34.625 
Q 24.75 34.625 20.71875 30.859375 
Q 16.703125 27.09375 16.703125 20.515625 
Q 16.703125 13.921875 20.71875 10.15625 
Q 24.75 6.390625 31.78125 6.390625 
Q 38.8125 6.390625 42.859375 10.171875 
Q 46.921875 13.96875 46.921875 20.515625 
Q 46.921875 27.09375 42.890625 30.859375 
Q 38.875 34.625 31.78125 34.625 
z
M 21.921875 38.8125 
Q 15.578125 40.375 12.03125 44.71875 
Q 8.5 49.078125 8.5 55.328125 
Q 8.5 64.0625 14.71875 69.140625 
Q 20.953125 74.21875 31.78125 74.21875 
Q 42.671875 74.21875 48.875 69.140625 
Q 55.078125 64.0625 55.078125 55.328125 
Q 55.078125 49.078125 51.53125 44.71875 
Q 48 40.375 41.703125 38.8125 
Q 48.828125 37.15625 52.796875 32.3125 
Q 56.78125 27.484375 56.78125 20.515625 
Q 56.78125 9.90625 50.3125 4.234375 
Q 43.84375 -1.421875 31.78125 -1.421875 
Q 19.734375 -1.421875 13.25 4.234375 
Q 6.78125 9.90625 6.78125 20.515625 
Q 6.78125 27.484375 10.78125 32.3125 
Q 14.796875 37.15625 21.921875 38.8125 
z
M 18.3125 54.390625 
Q 18.3125 48.734375 21.84375 45.5625 
Q 25.390625 42.390625 31.78125 42.390625 
Q 38.140625 42.390625 41.71875 45.5625 
Q 45.3125 48.734375 45.3125 54.390625 
Q 45.3125 60.0625 41.71875 63.234375 
Q 38.140625 66.40625 31.78125 66.40625 
Q 25.390625 66.40625 21.84375 63.234375 
Q 18.3125 60.0625 18.3125 54.390625 
z
" id="DejaVuSans-56"/>
       </defs>
       <use xlink:href="#DejaVuSans-56"/>
       <use x="63.623047" xlink:href="#DejaVuSans-48"/>
      </g>
     </g>
    </g>
    <g id="ytick_5">
     <g id="line2d_19">
      <path clip-path="url(#p451e424bc6)" d="M 57.6 140.032 
L 414.72 140.032 
" style="fill:none;stroke:#b0b0b0;stroke-linecap:square;stroke-width:0.6;"/>
     </g>
     <g id="line2d_20">
      <g>
       <use style="stroke:#000000;stroke-width:0.8;" x="57.6" xlink:href="#m526d09b034" y="140.032"/>
      </g>
     </g>
     <g id="text_11">
      <!-- 100 -->
      <g transform="translate(31.5125 143.831219)scale(0.1 -0.1)">
       <use xlink:href="#DejaVuSans-49"/>
       <use x="63.623047" xlink:href="#DejaVuSans-48"/>
       <use x="127.246094" xlink:href="#DejaVuSans-48"/>
      </g>
     </g>
    </g>
    <g id="ytick_6">
     <g id="line2d_21">
      <path clip-path="url(#p451e424bc6)" d="M 57.6 100.608 
L 414.72 100.608 
" style="fill:none;stroke:#b0b0b0;stroke-linecap:square;stroke-width:0.6;"/>
     </g>
     <g id="line2d_22">
      <g>
       <use style="stroke:#000000;stroke-width:0.8;" x="57.6" xlink:href="#m526d09b034" y="100.608"/>
      </g>
     </g>
     <g id="text_12">
      <!-- 120 -->
      <g transform="translate(31.5125 104.407219)scale(0.1 -0.1)">
       <use xlink:href="#DejaVuSans-49"/>
       <use x="63.623047" xlink:href="#DejaVuSans-50"/>
       <use x="127.246094" xlink:href="#DejaVuSans-48"/>
      </g>
     </g>
    </g>
    <g id="ytick_7">
     <g id="line2d_23">
      <path clip-path="url(#p451e424bc6)" d="M 57.6 61.184 
L 414.72 61.184 
" style="fill:none;stroke:#b0b0b0;stroke-linecap:square;stroke-width:0.6;"/>
     </g>
     <g id="line2d_24">
      <g>
       <use style="stroke:#000000;stroke-width:0.8;" x="57.6" xlink:href="#m526d09b034" y="61.184"/>
      </g>
     </g>
     <g id="text_13">
      <!-- 140 -->
      <g transform="translate(31.5125 64.983219)scale(0.1 -0.1)">
       <use xlink:href="#DejaVuSans-49"/>
       <use x="63.623047" xlink:href="#DejaVuSans-52"/>
       <use x="127.246094" xlink:href="#DejaVuSans-48"/>
      </g>
     </g>
    </g>
    <g id="text_14">
     <!-- 和速率 -->
     <g transform="translate(22.371875 204.528)rotate(-90)scale(0.2 -0.2)">
      <defs>
       <path d="M 50.796875 45.09375 
Q 51.296875 44.59375 51.296875 44.25 
Q 51.296875 43.90625 50.40625 43.90625 
L 30.703125 43.90625 
L 30.703125 35.90625 
Q 36.90625 33.5 41.34375 31.046875 
Q 45.796875 28.59375 47.1875 27 
Q 48.59375 25.40625 48.59375 23.59375 
Q 48.59375 21.796875 47.6875 20.390625 
Q 46.796875 19 45.640625 19 
Q 44.5 19 43.59375 21.5 
Q 42.703125 24 39.25 27.75 
Q 35.796875 31.5 30.703125 34.59375 
L 30.703125 7 
Q 30.703125 -4.703125 30.796875 -7.796875 
L 30.90625 -13.296875 
Q 30.90625 -15.203125 28.90625 -15.890625 
Q 26.90625 -16.59375 26.59375 -16.59375 
Q 25.59375 -16.59375 25.59375 -14.59375 
L 25.90625 -5.296875 
Q 26.09375 0.5 26.09375 7.203125 
L 26.09375 33.796875 
Q 18 17 4.796875 2.203125 
L 3.59375 3.09375 
Q 20.796875 28.09375 25.59375 43.90625 
L 13.59375 43.90625 
Q 9.703125 43.90625 6.90625 42.796875 
L 4.09375 46.5 
Q 8.90625 46.09375 11.40625 46.09375 
L 26.09375 46.09375 
L 26.09375 64 
Q 15 61.703125 6.59375 60.703125 
L 6.296875 62.203125 
Q 26.703125 66.5 43.5 74.40625 
L 48.296875 70 
Q 48.90625 69.5 48.90625 69.09375 
Q 48.90625 68.703125 48.65625 68.640625 
Q 48.40625 68.59375 46.15625 68.59375 
Q 43.90625 68.59375 40.40625 67.5 
Q 34.703125 65.796875 30.703125 64.90625 
L 30.703125 46.09375 
L 41.09375 46.09375 
L 45.40625 50.59375 
z
M 94 60.296875 
Q 94.796875 59.59375 94.796875 59.25 
Q 94.796875 58.90625 93.90625 58.40625 
L 91 56.796875 
L 91 7.296875 
Q 91 0.296875 91.203125 -2.5 
L 91.59375 -7.09375 
Q 91.59375 -8.703125 89.59375 -9.453125 
Q 87.59375 -10.203125 87 -10.203125 
Q 86.40625 -10.203125 86.40625 -8.90625 
L 86.40625 1.296875 
L 58.40625 1.296875 
L 58.40625 -10.09375 
Q 58.40625 -11.796875 56.59375 -12.5 
Q 54.796875 -13.203125 54.140625 -13.203125 
Q 53.5 -13.203125 53.5 -11 
L 53.703125 -3.703125 
Q 53.796875 0.5 53.796875 5.796875 
L 53.796875 54.203125 
Q 53.796875 60.796875 53.5 65.59375 
L 59.796875 60.90625 
L 85.203125 60.90625 
L 88.5 65.203125 
z
M 86.40625 3.5 
L 86.40625 58.703125 
L 58.40625 58.703125 
L 58.40625 3.5 
z
" id="STSong-21644"/>
       <path d="M 93.203125 61.40625 
Q 94 60.59375 94 60.25 
Q 94 59.90625 93 59.90625 
L 63.203125 59.90625 
L 63.203125 48.59375 
L 78.203125 48.59375 
L 81.5 53.203125 
L 87.90625 48.5 
Q 88.59375 48 88.59375 47.59375 
Q 88.59375 47.203125 87.796875 46.796875 
L 84.796875 45.203125 
L 84.796875 37.90625 
Q 84.796875 33.90625 84.9375 31.09375 
Q 85.09375 28.296875 85.09375 28.09375 
Q 85.09375 26.796875 83.1875 26 
Q 81.296875 25.203125 80.75 25.203125 
Q 80.203125 25.203125 80.203125 26.40625 
L 80.203125 28.90625 
L 63.203125 28.90625 
L 63.203125 13 
Q 63.203125 6.5 63.296875 3.5 
L 63.40625 -1.40625 
Q 63.40625 -2.90625 61.34375 -4 
Q 59.296875 -5.09375 58.796875 -5.09375 
Q 58.296875 -5.09375 58.296875 -3.59375 
L 58.40625 2.296875 
Q 58.5 5.40625 58.5 13 
L 58.5 28.59375 
Q 46.203125 9.5 30.09375 -0.59375 
L 29.296875 0.40625 
Q 39.703125 9.59375 44.34375 15.640625 
Q 49 21.703125 52.90625 28.90625 
L 42.703125 28.90625 
L 42.703125 27.296875 
Q 42.703125 25.5 40.796875 24.84375 
Q 38.90625 24.203125 38.59375 24.203125 
Q 37.796875 24.203125 37.796875 25.40625 
L 38 31.59375 
L 38 43 
Q 38 48.203125 37.703125 52.796875 
L 43 48.59375 
L 58.5 48.59375 
L 58.5 59.90625 
L 39.90625 59.90625 
Q 36 59.90625 33.203125 58.796875 
L 30.40625 62.5 
Q 35.203125 62.09375 37.703125 62.09375 
L 58.5 62.09375 
Q 58.5 70 58.09375 76.703125 
L 65.90625 72.296875 
Q 66.59375 71.90625 66.59375 71.59375 
Q 66.59375 71.296875 65.90625 70.90625 
L 63.203125 69.296875 
L 63.203125 62.09375 
L 82.703125 62.09375 
L 86.703125 67.59375 
z
M 80.203125 31.09375 
L 80.203125 46.40625 
L 63.203125 46.40625 
L 63.203125 31.09375 
z
M 58.5 31.09375 
L 58.5 46.40625 
L 42.703125 46.40625 
L 42.703125 31.09375 
z
M 11.09375 70.40625 
Q 25.09375 63.59375 25.09375 57.59375 
Q 25.09375 55.703125 24.09375 54.34375 
Q 23.09375 53 22.1875 53 
Q 21.296875 53 20.84375 53.75 
Q 20.40625 54.5 19.59375 57 
Q 18.796875 59.5 16.34375 62.953125 
Q 13.90625 66.40625 10.5 69.5 
z
M 96.90625 -7.5 
L 96.796875 -8.796875 
Q 90.296875 -10.296875 88.796875 -13.90625 
Q 88.59375 -14.5 88.296875 -14.640625 
Q 88 -14.796875 87.09375 -14.796875 
Q 81 -14.796875 64.640625 -14.5 
Q 48.296875 -14.203125 44.34375 -13.84375 
Q 40.40625 -13.5 36.40625 -12.046875 
Q 32.40625 -10.59375 29.15625 -7.75 
Q 25.90625 -4.90625 24.09375 -1.546875 
Q 22.296875 1.796875 21.546875 1.796875 
Q 20.796875 1.796875 19.84375 0.75 
Q 18.90625 -0.296875 16.25 -4.84375 
Q 13.59375 -9.40625 12.203125 -13.40625 
Q 11.796875 -14.296875 11.4375 -14.296875 
Q 11.09375 -14.296875 10.703125 -14.09375 
L 6.296875 -11.40625 
L 19.796875 3.796875 
L 19.796875 34.796875 
L 13.09375 34.796875 
Q 9.203125 34.796875 6.40625 33.703125 
L 3.796875 37.296875 
Q 8.59375 36.90625 11.09375 36.90625 
L 18.296875 36.90625 
L 21.09375 41.59375 
L 27.703125 37.296875 
Q 28.40625 36.796875 28.40625 36.5 
Q 28.40625 36.203125 27.703125 35.796875 
L 24.5 33.796875 
L 24.5 4.40625 
Q 24.5 1.796875 26.34375 -1.140625 
Q 28.203125 -4.09375 32.09375 -6.4375 
Q 36 -8.796875 40.390625 -9.390625 
Q 44.796875 -10 53.203125 -10 
Q 73.296875 -10 96.90625 -7.5 
z
M 64.40625 22.09375 
Q 76.09375 18.296875 81.6875 15.546875 
Q 87.296875 12.796875 88.5 10.546875 
Q 89.703125 8.296875 89.703125 6.5 
Q 89.703125 3.40625 87.203125 3.40625 
Q 86.296875 3.40625 84.75 5.84375 
Q 83.203125 8.296875 77.203125 12.890625 
Q 71.203125 17.5 64.09375 20.90625 
z
" id="STSong-36895"/>
       <path d="M 42.90625 77.40625 
Q 51.59375 74.59375 53.546875 72.4375 
Q 55.5 70.296875 55.5 68.390625 
Q 55.5 66.5 54.34375 65.34375 
Q 53.203125 64.203125 51.84375 64.203125 
Q 50.5 64.203125 50 65.796875 
Q 47.5 72.5 42.203125 76.40625 
z
M 92.203125 63.296875 
Q 92.796875 62.59375 92.796875 62.25 
Q 92.796875 61.90625 91.703125 61.90625 
L 48.5 61.90625 
L 53 59.59375 
Q 53.703125 59.203125 53.703125 59 
Q 53.703125 58.796875 52.390625 58.59375 
Q 51.09375 58.40625 46.59375 55.09375 
Q 42.09375 51.796875 35.796875 45.703125 
L 53.59375 46.40625 
Q 59.296875 53.296875 60.203125 54.90625 
L 65.90625 51.203125 
Q 66.703125 50.703125 66.703125 50.296875 
Q 66.703125 49.90625 65.296875 49.59375 
Q 62.5 48.796875 59.90625 46.5 
Q 50 37.5 38.203125 28.09375 
L 62.796875 29.703125 
Q 60.40625 33.796875 56.703125 36.703125 
L 57.296875 37.90625 
Q 70.296875 32.203125 70.296875 26.59375 
Q 70.296875 24.90625 69.25 23.203125 
Q 68.203125 21.5 67.390625 21.5 
Q 66.59375 21.5 66 22.203125 
Q 65.40625 22.90625 64.953125 24.59375 
Q 64.5 26.296875 63.59375 28.203125 
L 46.09375 25.703125 
Q 38.296875 24.703125 36.703125 23.203125 
Q 36.296875 22.90625 35.9375 22.90625 
Q 35.59375 22.90625 35.203125 23.5 
L 31.796875 28.40625 
Q 39.59375 30.09375 51.90625 44.40625 
L 41.5 43.203125 
Q 37.5 42.703125 36.25 42.046875 
Q 35 41.40625 34.5 41.40625 
Q 34 41.40625 33.59375 41.90625 
L 30.09375 46.203125 
Q 37.40625 48.296875 46 61.90625 
L 17.59375 61.90625 
Q 13.703125 61.90625 10.90625 60.796875 
L 8.09375 64.5 
Q 12.90625 64.09375 15.40625 64.09375 
L 80.90625 64.09375 
L 85.5 70.59375 
z
M 87.09375 54.40625 
Q 87.796875 54 87.796875 53.703125 
Q 87.796875 53.40625 86.1875 53.25 
Q 84.59375 53.09375 81.6875 51.296875 
Q 78.796875 49.5 69 42 
L 67.796875 43.09375 
Q 75.203125 50.703125 80.90625 58 
z
M 11.59375 56.40625 
Q 16.796875 54.796875 21.75 51.34375 
Q 26.703125 47.90625 26.703125 45.09375 
Q 26.703125 43.5 25.546875 42.046875 
Q 24.40625 40.59375 23.296875 40.59375 
Q 22.203125 40.59375 21.59375 43.046875 
Q 21 45.5 18.09375 49.09375 
Q 15.203125 52.703125 11.203125 55.40625 
z
M 72 39.296875 
Q 78.296875 37.09375 81.796875 34.9375 
Q 85.296875 32.796875 86.140625 31.1875 
Q 87 29.59375 87 27.84375 
Q 87 26.09375 86.09375 24.84375 
Q 85.203125 23.59375 84.09375 23.59375 
Q 83 23.59375 82 26.5 
Q 79.796875 32.796875 71.5 38.296875 
z
M 32.40625 35.90625 
Q 21.296875 28.5 18.34375 26.203125 
Q 15.40625 23.90625 14.546875 22.546875 
Q 13.703125 21.203125 13.296875 21.203125 
Q 12.90625 21.203125 12.59375 21.5 
L 7.90625 25.40625 
L 31.296875 37.203125 
z
M 95.90625 10.703125 
Q 96.5 10.09375 96.5 9.796875 
Q 96.5 9.5 95.59375 9.5 
L 52.09375 9.5 
L 52.09375 -7.90625 
Q 52.09375 -10.703125 52.203125 -11.90625 
L 52.296875 -14.09375 
Q 52.296875 -15.09375 50.296875 -16 
Q 48.296875 -16.90625 47.640625 -16.90625 
Q 47 -16.90625 47 -15.90625 
L 47.203125 -12.09375 
Q 47.40625 -9.703125 47.40625 -7.796875 
L 47.40625 9.5 
L 12.5 9.5 
Q 8.59375 9.5 5.796875 8.40625 
L 3 12.09375 
Q 7.796875 11.703125 10.296875 11.703125 
L 47.40625 11.703125 
L 47.40625 15.59375 
Q 47.40625 19.296875 47.09375 24.203125 
L 54.59375 20.90625 
Q 55.296875 20.59375 55.296875 20.296875 
Q 55.296875 20 54.703125 19.5 
L 52.09375 17.203125 
L 52.09375 11.703125 
L 84.296875 11.703125 
L 88.90625 18 
z
" id="STSong-29575"/>
      </defs>
      <use xlink:href="#STSong-21644"/>
      <use x="99.999985" xlink:href="#STSong-36895"/>
      <use x="199.999969" xlink:href="#STSong-29575"/>
     </g>
    </g>
   </g>
   <g id="line2d_25">
    <path clip-path="url(#p451e424bc6)" d="M 57.6 303.001591 
L 146.88 263.200264 
L 236.16 204.976653 
L 325.44 135.004849 
L 414.72 59.584076 
" style="fill:none;stroke:#0000ff;stroke-linecap:square;stroke-width:1.5;"/>
    <defs>
     <path d="M -3 0 
L 3 0 
M 0 3 
L 0 -3 
" id="m99104b47d9" style="stroke:#0000ff;"/>
    </defs>
    <g clip-path="url(#p451e424bc6)">
     <use style="fill:#0000ff;stroke:#0000ff;" x="57.6" xlink:href="#m99104b47d9" y="303.001591"/>
     <use style="fill:#0000ff;stroke:#0000ff;" x="146.88" xlink:href="#m99104b47d9" y="263.200264"/>
     <use style="fill:#0000ff;stroke:#0000ff;" x="236.16" xlink:href="#m99104b47d9" y="204.976653"/>
     <use style="fill:#0000ff;stroke:#0000ff;" x="325.44" xlink:href="#m99104b47d9" y="135.004849"/>
     <use style="fill:#0000ff;stroke:#0000ff;" x="414.72" xlink:href="#m99104b47d9" y="59.584076"/>
    </g>
   </g>
   <g id="line2d_26">
    <path clip-path="url(#p451e424bc6)" d="M 57.6 285.026159 
L 146.88 243.238099 
L 236.16 185.666778 
L 325.44 116.460292 
L 414.72 42.206568 
" style="fill:none;stroke:#008000;stroke-linecap:square;stroke-width:1.5;"/>
    <defs>
     <path d="M -0 3 
L 3 -3 
L -3 -3 
z
" id="md690475a75" style="stroke:#008000;stroke-linejoin:miter;"/>
    </defs>
    <g clip-path="url(#p451e424bc6)">
     <use style="fill:#008000;stroke:#008000;stroke-linejoin:miter;" x="57.6" xlink:href="#md690475a75" y="285.026159"/>
     <use style="fill:#008000;stroke:#008000;stroke-linejoin:miter;" x="146.88" xlink:href="#md690475a75" y="243.238099"/>
     <use style="fill:#008000;stroke:#008000;stroke-linejoin:miter;" x="236.16" xlink:href="#md690475a75" y="185.666778"/>
     <use style="fill:#008000;stroke:#008000;stroke-linejoin:miter;" x="325.44" xlink:href="#md690475a75" y="116.460292"/>
     <use style="fill:#008000;stroke:#008000;stroke-linejoin:miter;" x="414.72" xlink:href="#md690475a75" y="42.206568"/>
    </g>
   </g>
   <g id="line2d_27">
    <path clip-path="url(#p451e424bc6)" d="M 57.6 290.222656 
L 146.88 257.672329 
L 236.16 208.028741 
L 325.44 146.103907 
L 414.72 104.528125 
" style="fill:none;stroke:#bf00bf;stroke-linecap:square;stroke-width:1.5;"/>
    <defs>
     <path d="M 0 -3 
L -0.673542 -0.927051 
L -2.85317 -0.927051 
L -1.089814 0.354102 
L -1.763356 2.427051 
L -0 1.145898 
L 1.763356 2.427051 
L 1.089814 0.354102 
L 2.85317 -0.927051 
L 0.673542 -0.927051 
z
" id="m878c730dbd" style="stroke:#bf00bf;stroke-linejoin:bevel;"/>
    </defs>
    <g clip-path="url(#p451e424bc6)">
     <use style="fill:#bf00bf;stroke:#bf00bf;stroke-linejoin:bevel;" x="57.6" xlink:href="#m878c730dbd" y="290.222656"/>
     <use style="fill:#bf00bf;stroke:#bf00bf;stroke-linejoin:bevel;" x="146.88" xlink:href="#m878c730dbd" y="257.672329"/>
     <use style="fill:#bf00bf;stroke:#bf00bf;stroke-linejoin:bevel;" x="236.16" xlink:href="#m878c730dbd" y="208.028741"/>
     <use style="fill:#bf00bf;stroke:#bf00bf;stroke-linejoin:bevel;" x="325.44" xlink:href="#m878c730dbd" y="146.103907"/>
     <use style="fill:#bf00bf;stroke:#bf00bf;stroke-linejoin:bevel;" x="414.72" xlink:href="#m878c730dbd" y="104.528125"/>
    </g>
   </g>
   <g id="line2d_28">
    <path clip-path="url(#p451e424bc6)" d="M 57.6 285.743341 
L 146.88 245.423765 
L 236.16 190.716677 
L 325.44 124.877612 
L 414.72 52.23901 
" style="fill:none;stroke:#ff0000;stroke-linecap:square;stroke-width:1.5;"/>
    <defs>
     <path d="M 0 4.242641 
L 4.242641 0 
L 0 -4.242641 
L -4.242641 0 
z
" id="mc1b459082a" style="stroke:#ff0000;stroke-linejoin:miter;"/>
    </defs>
    <g clip-path="url(#p451e424bc6)">
     <use style="fill:#ff0000;stroke:#ff0000;stroke-linejoin:miter;" x="57.6" xlink:href="#mc1b459082a" y="285.743341"/>
     <use style="fill:#ff0000;stroke:#ff0000;stroke-linejoin:miter;" x="146.88" xlink:href="#mc1b459082a" y="245.423765"/>
     <use style="fill:#ff0000;stroke:#ff0000;stroke-linejoin:miter;" x="236.16" xlink:href="#mc1b459082a" y="190.716677"/>
     <use style="fill:#ff0000;stroke:#ff0000;stroke-linejoin:miter;" x="325.44" xlink:href="#mc1b459082a" y="124.877612"/>
     <use style="fill:#ff0000;stroke:#ff0000;stroke-linejoin:miter;" x="414.72" xlink:href="#mc1b459082a" y="52.23901"/>
    </g>
   </g>
   <g id="patch_3">
    <path d="M 57.6 307.584 
L 57.6 41.472 
" style="fill:none;stroke:#000000;stroke-linecap:square;stroke-linejoin:miter;stroke-width:0.8;"/>
   </g>
   <g id="patch_4">
    <path d="M 414.72 307.584 
L 414.72 41.472 
" style="fill:none;stroke:#000000;stroke-linecap:square;stroke-linejoin:miter;stroke-width:0.8;"/>
   </g>
   <g id="patch_5">
    <path d="M 57.6 307.584 
L 414.72 307.584 
" style="fill:none;stroke:#000000;stroke-linecap:square;stroke-linejoin:miter;stroke-width:0.8;"/>
   </g>
   <g id="patch_6">
    <path d="M 57.6 41.472 
L 414.72 41.472 
" style="fill:none;stroke:#000000;stroke-linecap:square;stroke-linejoin:miter;stroke-width:0.8;"/>
   </g>
   <g id="text_15">
    <!-- LS SNR=inf, K=12,d=2 -->
    <g transform="translate(139.79125 35.472)scale(0.2 -0.2)">
     <defs>
      <path d="M 57.328125 18.3125 
L 58.9375 17.96875 
L 53.265625 0 
L 2 0 
L 2 1.8125 
L 4.5 1.8125 
Q 8.6875 1.8125 10.5 4.546875 
Q 11.53125 6.109375 11.53125 11.765625 
L 11.53125 54.5 
Q 11.53125 60.6875 10.15625 62.25 
Q 8.25 64.40625 4.5 64.40625 
L 2 64.40625 
L 2 66.21875 
L 31.984375 66.21875 
L 31.984375 64.40625 
Q 26.703125 64.453125 24.578125 63.421875 
Q 22.46875 62.40625 21.6875 60.84375 
Q 20.90625 59.28125 20.90625 53.375 
L 20.90625 11.765625 
Q 20.90625 7.71875 21.6875 6.203125 
Q 22.265625 5.171875 23.484375 4.6875 
Q 24.703125 4.203125 31.109375 4.203125 
L 35.9375 4.203125 
Q 43.5625 4.203125 46.625 5.328125 
Q 49.703125 6.453125 52.234375 9.296875 
Q 54.78125 12.15625 57.328125 18.3125 
z
" id="TimesNewRomanPSMT-76"/>
      <path d="M 45.84375 67.71875 
L 45.84375 44.828125 
L 44.046875 44.828125 
Q 43.171875 51.421875 40.890625 55.328125 
Q 38.625 59.234375 34.421875 61.515625 
Q 30.21875 63.8125 25.734375 63.8125 
Q 20.65625 63.8125 17.328125 60.71875 
Q 14.015625 57.625 14.015625 53.65625 
Q 14.015625 50.640625 16.109375 48.140625 
Q 19.140625 44.484375 30.515625 38.375 
Q 39.796875 33.40625 43.1875 30.734375 
Q 46.578125 28.078125 48.40625 24.453125 
Q 50.25 20.84375 50.25 16.890625 
Q 50.25 9.375 44.40625 3.921875 
Q 38.578125 -1.515625 29.390625 -1.515625 
Q 26.515625 -1.515625 23.96875 -1.078125 
Q 22.46875 -0.828125 17.703125 0.703125 
Q 12.9375 2.25 11.671875 2.25 
Q 10.453125 2.25 9.734375 1.515625 
Q 9.03125 0.78125 8.6875 -1.515625 
L 6.890625 -1.515625 
L 6.890625 21.1875 
L 8.6875 21.1875 
Q 9.96875 14.0625 12.109375 10.515625 
Q 14.265625 6.984375 18.671875 4.640625 
Q 23.09375 2.296875 28.375 2.296875 
Q 34.46875 2.296875 38 5.515625 
Q 41.546875 8.734375 41.546875 13.140625 
Q 41.546875 15.578125 40.203125 18.0625 
Q 38.875 20.5625 36.03125 22.703125 
Q 34.125 24.171875 25.625 28.921875 
Q 17.140625 33.6875 13.546875 36.515625 
Q 9.96875 39.359375 8.109375 42.765625 
Q 6.25 46.1875 6.25 50.296875 
Q 6.25 57.421875 11.71875 62.5625 
Q 17.1875 67.71875 25.640625 67.71875 
Q 30.90625 67.71875 36.8125 65.140625 
Q 39.546875 63.921875 40.671875 63.921875 
Q 41.9375 63.921875 42.75 64.671875 
Q 43.5625 65.4375 44.046875 67.71875 
z
" id="TimesNewRomanPSMT-83"/>
      <path id="TimesNewRomanPSMT-32"/>
      <path d="M -1.3125 66.21875 
L 16.65625 66.21875 
L 57.125 16.546875 
L 57.125 54.734375 
Q 57.125 60.84375 55.765625 62.359375 
Q 53.953125 64.40625 50.046875 64.40625 
L 47.75 64.40625 
L 47.75 66.21875 
L 70.796875 66.21875 
L 70.796875 64.40625 
L 68.453125 64.40625 
Q 64.265625 64.40625 62.5 61.859375 
Q 61.421875 60.296875 61.421875 54.734375 
L 61.421875 -1.078125 
L 59.671875 -1.078125 
L 16.015625 52.25 
L 16.015625 11.46875 
Q 16.015625 5.375 17.328125 3.859375 
Q 19.1875 1.8125 23.046875 1.8125 
L 25.390625 1.8125 
L 25.390625 0 
L 2.34375 0 
L 2.34375 1.8125 
L 4.640625 1.8125 
Q 8.890625 1.8125 10.640625 4.34375 
Q 11.71875 5.90625 11.71875 11.46875 
L 11.71875 57.515625 
Q 8.84375 60.890625 7.34375 61.953125 
Q 5.859375 63.03125 2.984375 63.96875 
Q 1.5625 64.40625 -1.3125 64.40625 
z
" id="TimesNewRomanPSMT-78"/>
      <path d="M 67.578125 0 
L 49.90625 0 
L 27.484375 30.953125 
Q 25 30.859375 23.4375 30.859375 
Q 22.796875 30.859375 22.0625 30.875 
Q 21.34375 30.90625 20.5625 30.953125 
L 20.5625 11.71875 
Q 20.5625 5.46875 21.921875 3.953125 
Q 23.78125 1.8125 27.484375 1.8125 
L 30.078125 1.8125 
L 30.078125 0 
L 1.703125 0 
L 1.703125 1.8125 
L 4.203125 1.8125 
Q 8.40625 1.8125 10.203125 4.546875 
Q 11.234375 6.0625 11.234375 11.71875 
L 11.234375 54.5 
Q 11.234375 60.75 9.859375 62.25 
Q 7.953125 64.40625 4.203125 64.40625 
L 1.703125 64.40625 
L 1.703125 66.21875 
L 25.828125 66.21875 
Q 36.375 66.21875 41.375 64.671875 
Q 46.390625 63.140625 49.875 59.015625 
Q 53.375 54.890625 53.375 49.171875 
Q 53.375 43.0625 49.390625 38.5625 
Q 45.40625 34.078125 37.0625 32.234375 
L 50.734375 13.234375 
Q 55.421875 6.6875 58.78125 4.53125 
Q 62.15625 2.390625 67.578125 1.8125 
z
M 20.5625 34.03125 
Q 21.484375 34.03125 22.171875 34 
Q 22.859375 33.984375 23.296875 33.984375 
Q 32.765625 33.984375 37.578125 38.078125 
Q 42.390625 42.1875 42.390625 48.53125 
Q 42.390625 54.734375 38.5 58.609375 
Q 34.625 62.5 28.21875 62.5 
Q 25.390625 62.5 20.5625 61.578125 
z
" id="TimesNewRomanPSMT-82"/>
      <path d="M 1.8125 43.109375 
L 54.5 43.109375 
L 54.5 39.109375 
L 1.8125 39.109375 
z
M 1.8125 27.203125 
L 54.5 27.203125 
L 54.5 23.1875 
L 1.8125 23.1875 
z
" id="TimesNewRomanPSMT-61"/>
      <path d="M 14.5 69.4375 
Q 16.546875 69.4375 17.984375 67.984375 
Q 19.4375 66.546875 19.4375 64.5 
Q 19.4375 62.453125 17.984375 60.984375 
Q 16.546875 59.515625 14.5 59.515625 
Q 12.453125 59.515625 10.984375 60.984375 
Q 9.515625 62.453125 9.515625 64.5 
Q 9.515625 66.546875 10.953125 67.984375 
Q 12.40625 69.4375 14.5 69.4375 
z
M 18.5625 46.046875 
L 18.5625 10.109375 
Q 18.5625 5.90625 19.171875 4.515625 
Q 19.78125 3.125 20.96875 2.4375 
Q 22.171875 1.765625 25.34375 1.765625 
L 25.34375 0 
L 3.609375 0 
L 3.609375 1.765625 
Q 6.890625 1.765625 8 2.390625 
Q 9.125 3.03125 9.78125 4.484375 
Q 10.453125 5.953125 10.453125 10.109375 
L 10.453125 27.34375 
Q 10.453125 34.625 10.015625 36.765625 
Q 9.671875 38.328125 8.9375 38.9375 
Q 8.203125 39.546875 6.9375 39.546875 
Q 5.5625 39.546875 3.609375 38.8125 
L 2.9375 40.578125 
L 16.40625 46.046875 
z
" id="TimesNewRomanPSMT-105"/>
      <path d="M 16.15625 36.578125 
Q 24.03125 46.046875 31.15625 46.046875 
Q 34.8125 46.046875 37.453125 44.21875 
Q 40.09375 42.390625 41.65625 38.1875 
Q 42.71875 35.25 42.71875 29.203125 
L 42.71875 10.109375 
Q 42.71875 5.859375 43.40625 4.34375 
Q 43.953125 3.125 45.140625 2.4375 
Q 46.34375 1.765625 49.5625 1.765625 
L 49.5625 0 
L 27.4375 0 
L 27.4375 1.765625 
L 28.375 1.765625 
Q 31.5 1.765625 32.734375 2.703125 
Q 33.984375 3.65625 34.46875 5.515625 
Q 34.671875 6.25 34.671875 10.109375 
L 34.671875 28.421875 
Q 34.671875 34.515625 33.078125 37.28125 
Q 31.5 40.046875 27.734375 40.046875 
Q 21.921875 40.046875 16.15625 33.6875 
L 16.15625 10.109375 
Q 16.15625 5.5625 16.703125 4.5 
Q 17.390625 3.078125 18.578125 2.421875 
Q 19.78125 1.765625 23.4375 1.765625 
L 23.4375 0 
L 1.3125 0 
L 1.3125 1.765625 
L 2.296875 1.765625 
Q 5.71875 1.765625 6.90625 3.484375 
Q 8.109375 5.21875 8.109375 10.109375 
L 8.109375 26.703125 
Q 8.109375 34.765625 7.734375 36.515625 
Q 7.375 38.28125 6.609375 38.90625 
Q 5.859375 39.546875 4.59375 39.546875 
Q 3.21875 39.546875 1.3125 38.8125 
L 0.59375 40.578125 
L 14.0625 46.046875 
L 16.15625 46.046875 
z
" id="TimesNewRomanPSMT-110"/>
      <path d="M 20.609375 41.21875 
L 20.609375 11.8125 
Q 20.609375 5.5625 21.96875 3.90625 
Q 23.78125 1.765625 26.8125 1.765625 
L 30.859375 1.765625 
L 30.859375 0 
L 4.15625 0 
L 4.15625 1.765625 
L 6.15625 1.765625 
Q 8.109375 1.765625 9.71875 2.734375 
Q 11.328125 3.71875 11.9375 5.375 
Q 12.546875 7.03125 12.546875 11.8125 
L 12.546875 41.21875 
L 3.859375 41.21875 
L 3.859375 44.734375 
L 12.546875 44.734375 
L 12.546875 47.65625 
Q 12.546875 54.34375 14.6875 58.984375 
Q 16.84375 63.625 21.265625 66.484375 
Q 25.6875 69.34375 31.203125 69.34375 
Q 36.328125 69.34375 40.625 66.015625 
Q 43.453125 63.8125 43.453125 61.078125 
Q 43.453125 59.625 42.1875 58.328125 
Q 40.921875 57.03125 39.453125 57.03125 
Q 38.328125 57.03125 37.078125 57.828125 
Q 35.84375 58.640625 34.03125 61.296875 
Q 32.234375 63.96875 30.71875 64.890625 
Q 29.203125 65.828125 27.34375 65.828125 
Q 25.09375 65.828125 23.53125 64.625 
Q 21.96875 63.421875 21.28125 60.90625 
Q 20.609375 58.40625 20.609375 47.953125 
L 20.609375 44.734375 
L 32.125 44.734375 
L 32.125 41.21875 
z
" id="TimesNewRomanPSMT-102"/>
      <path d="M 5.375 -16.65625 
L 5.375 -14.5 
Q 10.40625 -12.84375 13.15625 -9.34375 
Q 15.921875 -5.859375 15.921875 -1.953125 
Q 15.921875 -1.03125 15.484375 -0.390625 
Q 15.140625 0.046875 14.796875 0.046875 
Q 14.265625 0.046875 12.453125 -0.921875 
Q 11.578125 -1.375 10.59375 -1.375 
Q 8.203125 -1.375 6.78125 0.046875 
Q 5.375 1.46875 5.375 3.953125 
Q 5.375 6.34375 7.203125 8.046875 
Q 9.03125 9.765625 11.671875 9.765625 
Q 14.890625 9.765625 17.40625 6.953125 
Q 19.921875 4.15625 19.921875 -0.484375 
Q 19.921875 -5.515625 16.421875 -9.828125 
Q 12.9375 -14.15625 5.375 -16.65625 
z
" id="TimesNewRomanPSMT-44"/>
      <path d="M 29.890625 36.71875 
L 54.296875 12.453125 
Q 60.296875 6.453125 64.546875 4.265625 
Q 68.796875 2.09375 73.046875 1.8125 
L 73.046875 0 
L 41.546875 0 
L 41.546875 1.8125 
Q 44.390625 1.8125 45.625 2.765625 
Q 46.875 3.71875 46.875 4.890625 
Q 46.875 6.0625 46.40625 6.984375 
Q 45.953125 7.90625 43.359375 10.453125 
L 20.515625 33.0625 
L 20.515625 11.71875 
Q 20.515625 6.6875 21.140625 5.078125 
Q 21.625 3.859375 23.1875 2.984375 
Q 25.296875 1.8125 27.640625 1.8125 
L 29.890625 1.8125 
L 29.890625 0 
L 1.65625 0 
L 1.65625 1.8125 
L 4 1.8125 
Q 8.109375 1.8125 9.96875 4.203125 
Q 11.140625 5.765625 11.140625 11.71875 
L 11.140625 54.5 
Q 11.140625 59.515625 10.5 61.1875 
Q 10.015625 62.359375 8.5 63.234375 
Q 6.34375 64.40625 4 64.40625 
L 1.65625 64.40625 
L 1.65625 66.21875 
L 29.890625 66.21875 
L 29.890625 64.40625 
L 27.640625 64.40625 
Q 25.34375 64.40625 23.1875 63.28125 
Q 21.6875 62.5 21.09375 60.9375 
Q 20.515625 59.375 20.515625 54.5 
L 20.515625 34.234375 
Q 21.484375 35.15625 27.203125 40.4375 
Q 41.703125 53.71875 44.734375 58.15625 
Q 46.046875 60.109375 46.046875 61.578125 
Q 46.046875 62.703125 45.015625 63.546875 
Q 44 64.40625 41.546875 64.40625 
L 40.046875 64.40625 
L 40.046875 66.21875 
L 64.359375 66.21875 
L 64.359375 64.40625 
Q 62.203125 64.359375 60.4375 63.8125 
Q 58.6875 63.28125 56.140625 61.734375 
Q 53.609375 60.203125 49.90625 56.78125 
Q 48.828125 55.8125 39.984375 46.78125 
z
" id="TimesNewRomanPSMT-75"/>
      <path d="M 11.71875 59.71875 
L 27.828125 67.578125 
L 29.4375 67.578125 
L 29.4375 11.671875 
Q 29.4375 6.109375 29.90625 4.734375 
Q 30.375 3.375 31.828125 2.640625 
Q 33.296875 1.90625 37.796875 1.8125 
L 37.796875 0 
L 12.890625 0 
L 12.890625 1.8125 
Q 17.578125 1.90625 18.9375 2.609375 
Q 20.3125 3.328125 20.84375 4.515625 
Q 21.390625 5.71875 21.390625 11.671875 
L 21.390625 47.40625 
Q 21.390625 54.640625 20.90625 56.6875 
Q 20.5625 58.25 19.65625 58.984375 
Q 18.75 59.71875 17.484375 59.71875 
Q 15.671875 59.71875 12.453125 58.203125 
z
" id="TimesNewRomanPSMT-49"/>
      <path d="M 45.84375 12.75 
L 41.21875 0 
L 2.15625 0 
L 2.15625 1.8125 
Q 19.390625 17.53125 26.421875 27.484375 
Q 33.453125 37.453125 33.453125 45.703125 
Q 33.453125 52 29.59375 56.046875 
Q 25.734375 60.109375 20.359375 60.109375 
Q 15.484375 60.109375 11.59375 57.25 
Q 7.71875 54.390625 5.859375 48.875 
L 4.046875 48.875 
Q 5.28125 57.90625 10.328125 62.734375 
Q 15.375 67.578125 22.953125 67.578125 
Q 31 67.578125 36.390625 62.40625 
Q 41.796875 57.234375 41.796875 50.203125 
Q 41.796875 45.171875 39.453125 40.140625 
Q 35.84375 32.234375 27.734375 23.390625 
Q 15.578125 10.109375 12.546875 7.375 
L 29.828125 7.375 
Q 35.109375 7.375 37.234375 7.765625 
Q 39.359375 8.15625 41.0625 9.34375 
Q 42.78125 10.546875 44.046875 12.75 
z
" id="TimesNewRomanPSMT-50"/>
      <path d="M 34.71875 5.03125 
Q 31.453125 1.609375 28.328125 0.109375 
Q 25.203125 -1.375 21.578125 -1.375 
Q 14.265625 -1.375 8.796875 4.75 
Q 3.328125 10.890625 3.328125 20.515625 
Q 3.328125 30.125 9.375 38.109375 
Q 15.4375 46.09375 24.953125 46.09375 
Q 30.859375 46.09375 34.71875 42.328125 
L 34.71875 50.59375 
Q 34.71875 58.25 34.34375 60 
Q 33.984375 61.765625 33.203125 62.390625 
Q 32.421875 63.03125 31.25 63.03125 
Q 29.984375 63.03125 27.875 62.25 
L 27.25 63.96875 
L 40.578125 69.4375 
L 42.78125 69.4375 
L 42.78125 17.71875 
Q 42.78125 9.859375 43.140625 8.125 
Q 43.5 6.390625 44.3125 5.703125 
Q 45.125 5.03125 46.1875 5.03125 
Q 47.515625 5.03125 49.703125 5.859375 
L 50.25 4.15625 
L 36.96875 -1.375 
L 34.71875 -1.375 
z
M 34.71875 8.453125 
L 34.71875 31.5 
Q 34.421875 34.8125 32.953125 37.546875 
Q 31.5 40.28125 29.078125 41.671875 
Q 26.65625 43.0625 24.359375 43.0625 
Q 20.0625 43.0625 16.703125 39.203125 
Q 12.25 34.125 12.25 24.359375 
Q 12.25 14.5 16.546875 9.25 
Q 20.84375 4 26.125 4 
Q 30.5625 4 34.71875 8.453125 
z
" id="TimesNewRomanPSMT-100"/>
     </defs>
     <use xlink:href="#TimesNewRomanPSMT-76"/>
     <use x="61.083984" xlink:href="#TimesNewRomanPSMT-83"/>
     <use x="116.699219" xlink:href="#TimesNewRomanPSMT-32"/>
     <use x="141.699219" xlink:href="#TimesNewRomanPSMT-83"/>
     <use x="197.314453" xlink:href="#TimesNewRomanPSMT-78"/>
     <use x="269.53125" xlink:href="#TimesNewRomanPSMT-82"/>
     <use x="336.230469" xlink:href="#TimesNewRomanPSMT-61"/>
     <use x="392.626953" xlink:href="#TimesNewRomanPSMT-105"/>
     <use x="420.410156" xlink:href="#TimesNewRomanPSMT-110"/>
     <use x="470.410156" xlink:href="#TimesNewRomanPSMT-102"/>
     <use x="503.710938" xlink:href="#TimesNewRomanPSMT-44"/>
     <use x="528.710938" xlink:href="#TimesNewRomanPSMT-32"/>
     <use x="553.710938" xlink:href="#TimesNewRomanPSMT-75"/>
     <use x="625.927734" xlink:href="#TimesNewRomanPSMT-61"/>
     <use x="682.324219" xlink:href="#TimesNewRomanPSMT-49"/>
     <use x="732.324219" xlink:href="#TimesNewRomanPSMT-50"/>
     <use x="782.324219" xlink:href="#TimesNewRomanPSMT-44"/>
     <use x="807.324219" xlink:href="#TimesNewRomanPSMT-100"/>
     <use x="857.324219" xlink:href="#TimesNewRomanPSMT-61"/>
     <use x="913.720703" xlink:href="#TimesNewRomanPSMT-50"/>
    </g>
   </g>
   <g id="legend_1">
    <g id="patch_7">
     <path d="M 64.6 108.1845 
L 169.51875 108.1845 
Q 171.51875 108.1845 171.51875 106.1845 
L 171.51875 48.472 
Q 171.51875 46.472 169.51875 46.472 
L 64.6 46.472 
Q 62.6 46.472 62.6 48.472 
L 62.6 106.1845 
Q 62.6 108.1845 64.6 108.1845 
z
" style="fill:#ffffff;opacity:0.8;stroke:#cccccc;stroke-linejoin:miter;"/>
    </g>
    <g id="line2d_29">
     <path d="M 66.6 54.570438 
L 86.6 54.570438 
" style="fill:none;stroke:#0000ff;stroke-linecap:square;stroke-width:1.5;"/>
    </g>
    <g id="line2d_30">
     <g>
      <use style="fill:#0000ff;stroke:#0000ff;" x="76.6" xlink:href="#m99104b47d9" y="54.570438"/>
     </g>
    </g>
    <g id="text_16">
     <!-- EZF -->
     <g transform="translate(94.6 58.070438)scale(0.1 -0.1)">
      <defs>
       <path d="M 9.8125 72.90625 
L 55.90625 72.90625 
L 55.90625 64.59375 
L 19.671875 64.59375 
L 19.671875 43.015625 
L 54.390625 43.015625 
L 54.390625 34.71875 
L 19.671875 34.71875 
L 19.671875 8.296875 
L 56.78125 8.296875 
L 56.78125 0 
L 9.8125 0 
z
" id="DejaVuSans-69"/>
       <path d="M 5.609375 72.90625 
L 62.890625 72.90625 
L 62.890625 65.375 
L 16.796875 8.296875 
L 64.015625 8.296875 
L 64.015625 0 
L 4.5 0 
L 4.5 7.515625 
L 50.59375 64.59375 
L 5.609375 64.59375 
z
" id="DejaVuSans-90"/>
       <path d="M 9.8125 72.90625 
L 51.703125 72.90625 
L 51.703125 64.59375 
L 19.671875 64.59375 
L 19.671875 43.109375 
L 48.578125 43.109375 
L 48.578125 34.8125 
L 19.671875 34.8125 
L 19.671875 0 
L 9.8125 0 
z
" id="DejaVuSans-70"/>
      </defs>
      <use xlink:href="#DejaVuSans-69"/>
      <use x="63.183594" xlink:href="#DejaVuSans-90"/>
      <use x="131.689453" xlink:href="#DejaVuSans-70"/>
     </g>
    </g>
    <g id="line2d_31">
     <path d="M 66.6 69.248563 
L 86.6 69.248563 
" style="fill:none;stroke:#008000;stroke-linecap:square;stroke-width:1.5;"/>
    </g>
    <g id="line2d_32">
     <g>
      <use style="fill:#008000;stroke:#008000;stroke-linejoin:miter;" x="76.6" xlink:href="#md690475a75" y="69.248563"/>
     </g>
    </g>
    <g id="text_17">
     <!-- WMMSE -->
     <g transform="translate(94.6 72.748563)scale(0.1 -0.1)">
      <defs>
       <path d="M 3.328125 72.90625 
L 13.28125 72.90625 
L 28.609375 11.28125 
L 43.890625 72.90625 
L 54.984375 72.90625 
L 70.3125 11.28125 
L 85.59375 72.90625 
L 95.609375 72.90625 
L 77.296875 0 
L 64.890625 0 
L 49.515625 63.28125 
L 33.984375 0 
L 21.578125 0 
z
" id="DejaVuSans-87"/>
       <path d="M 9.8125 72.90625 
L 24.515625 72.90625 
L 43.109375 23.296875 
L 61.8125 72.90625 
L 76.515625 72.90625 
L 76.515625 0 
L 66.890625 0 
L 66.890625 64.015625 
L 48.09375 14.015625 
L 38.1875 14.015625 
L 19.390625 64.015625 
L 19.390625 0 
L 9.8125 0 
z
" id="DejaVuSans-77"/>
       <path d="M 53.515625 70.515625 
L 53.515625 60.890625 
Q 47.90625 63.578125 42.921875 64.890625 
Q 37.9375 66.21875 33.296875 66.21875 
Q 25.25 66.21875 20.875 63.09375 
Q 16.5 59.96875 16.5 54.203125 
Q 16.5 49.359375 19.40625 46.890625 
Q 22.3125 44.4375 30.421875 42.921875 
L 36.375 41.703125 
Q 47.40625 39.59375 52.65625 34.296875 
Q 57.90625 29 57.90625 20.125 
Q 57.90625 9.515625 50.796875 4.046875 
Q 43.703125 -1.421875 29.984375 -1.421875 
Q 24.8125 -1.421875 18.96875 -0.25 
Q 13.140625 0.921875 6.890625 3.21875 
L 6.890625 13.375 
Q 12.890625 10.015625 18.65625 8.296875 
Q 24.421875 6.59375 29.984375 6.59375 
Q 38.421875 6.59375 43.015625 9.90625 
Q 47.609375 13.234375 47.609375 19.390625 
Q 47.609375 24.75 44.3125 27.78125 
Q 41.015625 30.8125 33.5 32.328125 
L 27.484375 33.5 
Q 16.453125 35.6875 11.515625 40.375 
Q 6.59375 45.0625 6.59375 53.421875 
Q 6.59375 63.09375 13.40625 68.65625 
Q 20.21875 74.21875 32.171875 74.21875 
Q 37.3125 74.21875 42.625 73.28125 
Q 47.953125 72.359375 53.515625 70.515625 
z
" id="DejaVuSans-83"/>
      </defs>
      <use xlink:href="#DejaVuSans-87"/>
      <use x="98.876953" xlink:href="#DejaVuSans-77"/>
      <use x="185.15625" xlink:href="#DejaVuSans-77"/>
      <use x="271.435547" xlink:href="#DejaVuSans-83"/>
      <use x="334.912109" xlink:href="#DejaVuSans-69"/>
     </g>
    </g>
    <g id="line2d_33">
     <path d="M 66.6 83.926688 
L 86.6 83.926688 
" style="fill:none;stroke:#bf00bf;stroke-linecap:square;stroke-width:1.5;"/>
    </g>
    <g id="line2d_34">
     <g>
      <use style="fill:#bf00bf;stroke:#bf00bf;stroke-linejoin:bevel;" x="76.6" xlink:href="#m878c730dbd" y="83.926688"/>
     </g>
    </g>
    <g id="text_18">
     <!-- LUW -->
     <g transform="translate(94.6 87.426688)scale(0.1 -0.1)">
      <defs>
       <path d="M 9.8125 72.90625 
L 19.671875 72.90625 
L 19.671875 8.296875 
L 55.171875 8.296875 
L 55.171875 0 
L 9.8125 0 
z
" id="DejaVuSans-76"/>
       <path d="M 8.6875 72.90625 
L 18.609375 72.90625 
L 18.609375 28.609375 
Q 18.609375 16.890625 22.84375 11.734375 
Q 27.09375 6.59375 36.625 6.59375 
Q 46.09375 6.59375 50.34375 11.734375 
Q 54.59375 16.890625 54.59375 28.609375 
L 54.59375 72.90625 
L 64.5 72.90625 
L 64.5 27.390625 
Q 64.5 13.140625 57.4375 5.859375 
Q 50.390625 -1.421875 36.625 -1.421875 
Q 22.796875 -1.421875 15.734375 5.859375 
Q 8.6875 13.140625 8.6875 27.390625 
z
" id="DejaVuSans-85"/>
      </defs>
      <use xlink:href="#DejaVuSans-76"/>
      <use x="50.712891" xlink:href="#DejaVuSans-85"/>
      <use x="123.90625" xlink:href="#DejaVuSans-87"/>
     </g>
    </g>
    <g id="line2d_35">
     <path d="M 66.6 98.604813 
L 86.6 98.604813 
" style="fill:none;stroke:#ff0000;stroke-linecap:square;stroke-width:1.5;"/>
    </g>
    <g id="line2d_36">
     <g>
      <use style="fill:#ff0000;stroke:#ff0000;stroke-linejoin:miter;" x="76.6" xlink:href="#mc1b459082a" y="98.604813"/>
     </g>
    </g>
    <g id="text_19">
     <!-- LCP(proposed) -->
     <g transform="translate(94.6 102.104813)scale(0.1 -0.1)">
      <defs>
       <path d="M 64.40625 67.28125 
L 64.40625 56.890625 
Q 59.421875 61.53125 53.78125 63.8125 
Q 48.140625 66.109375 41.796875 66.109375 
Q 29.296875 66.109375 22.65625 58.46875 
Q 16.015625 50.828125 16.015625 36.375 
Q 16.015625 21.96875 22.65625 14.328125 
Q 29.296875 6.6875 41.796875 6.6875 
Q 48.140625 6.6875 53.78125 8.984375 
Q 59.421875 11.28125 64.40625 15.921875 
L 64.40625 5.609375 
Q 59.234375 2.09375 53.4375 0.328125 
Q 47.65625 -1.421875 41.21875 -1.421875 
Q 24.65625 -1.421875 15.125 8.703125 
Q 5.609375 18.84375 5.609375 36.375 
Q 5.609375 53.953125 15.125 64.078125 
Q 24.65625 74.21875 41.21875 74.21875 
Q 47.75 74.21875 53.53125 72.484375 
Q 59.328125 70.75 64.40625 67.28125 
z
" id="DejaVuSans-67"/>
       <path d="M 19.671875 64.796875 
L 19.671875 37.40625 
L 32.078125 37.40625 
Q 38.96875 37.40625 42.71875 40.96875 
Q 46.484375 44.53125 46.484375 51.125 
Q 46.484375 57.671875 42.71875 61.234375 
Q 38.96875 64.796875 32.078125 64.796875 
z
M 9.8125 72.90625 
L 32.078125 72.90625 
Q 44.34375 72.90625 50.609375 67.359375 
Q 56.890625 61.8125 56.890625 51.125 
Q 56.890625 40.328125 50.609375 34.8125 
Q 44.34375 29.296875 32.078125 29.296875 
L 19.671875 29.296875 
L 19.671875 0 
L 9.8125 0 
z
" id="DejaVuSans-80"/>
       <path d="M 31 75.875 
Q 24.46875 64.65625 21.28125 53.65625 
Q 18.109375 42.671875 18.109375 31.390625 
Q 18.109375 20.125 21.3125 9.0625 
Q 24.515625 -2 31 -13.1875 
L 23.1875 -13.1875 
Q 15.875 -1.703125 12.234375 9.375 
Q 8.59375 20.453125 8.59375 31.390625 
Q 8.59375 42.28125 12.203125 53.3125 
Q 15.828125 64.359375 23.1875 75.875 
z
" id="DejaVuSans-40"/>
       <path d="M 18.109375 8.203125 
L 18.109375 -20.796875 
L 9.078125 -20.796875 
L 9.078125 54.6875 
L 18.109375 54.6875 
L 18.109375 46.390625 
Q 20.953125 51.265625 25.265625 53.625 
Q 29.59375 56 35.59375 56 
Q 45.5625 56 51.78125 48.09375 
Q 58.015625 40.1875 58.015625 27.296875 
Q 58.015625 14.40625 51.78125 6.484375 
Q 45.5625 -1.421875 35.59375 -1.421875 
Q 29.59375 -1.421875 25.265625 0.953125 
Q 20.953125 3.328125 18.109375 8.203125 
z
M 48.6875 27.296875 
Q 48.6875 37.203125 44.609375 42.84375 
Q 40.53125 48.484375 33.40625 48.484375 
Q 26.265625 48.484375 22.1875 42.84375 
Q 18.109375 37.203125 18.109375 27.296875 
Q 18.109375 17.390625 22.1875 11.75 
Q 26.265625 6.109375 33.40625 6.109375 
Q 40.53125 6.109375 44.609375 11.75 
Q 48.6875 17.390625 48.6875 27.296875 
z
" id="DejaVuSans-112"/>
       <path d="M 41.109375 46.296875 
Q 39.59375 47.171875 37.8125 47.578125 
Q 36.03125 48 33.890625 48 
Q 26.265625 48 22.1875 43.046875 
Q 18.109375 38.09375 18.109375 28.8125 
L 18.109375 0 
L 9.078125 0 
L 9.078125 54.6875 
L 18.109375 54.6875 
L 18.109375 46.1875 
Q 20.953125 51.171875 25.484375 53.578125 
Q 30.03125 56 36.53125 56 
Q 37.453125 56 38.578125 55.875 
Q 39.703125 55.765625 41.0625 55.515625 
z
" id="DejaVuSans-114"/>
       <path d="M 30.609375 48.390625 
Q 23.390625 48.390625 19.1875 42.75 
Q 14.984375 37.109375 14.984375 27.296875 
Q 14.984375 17.484375 19.15625 11.84375 
Q 23.34375 6.203125 30.609375 6.203125 
Q 37.796875 6.203125 41.984375 11.859375 
Q 46.1875 17.53125 46.1875 27.296875 
Q 46.1875 37.015625 41.984375 42.703125 
Q 37.796875 48.390625 30.609375 48.390625 
z
M 30.609375 56 
Q 42.328125 56 49.015625 48.375 
Q 55.71875 40.765625 55.71875 27.296875 
Q 55.71875 13.875 49.015625 6.21875 
Q 42.328125 -1.421875 30.609375 -1.421875 
Q 18.84375 -1.421875 12.171875 6.21875 
Q 5.515625 13.875 5.515625 27.296875 
Q 5.515625 40.765625 12.171875 48.375 
Q 18.84375 56 30.609375 56 
z
" id="DejaVuSans-111"/>
       <path d="M 44.28125 53.078125 
L 44.28125 44.578125 
Q 40.484375 46.53125 36.375 47.5 
Q 32.28125 48.484375 27.875 48.484375 
Q 21.1875 48.484375 17.84375 46.4375 
Q 14.5 44.390625 14.5 40.28125 
Q 14.5 37.15625 16.890625 35.375 
Q 19.28125 33.59375 26.515625 31.984375 
L 29.59375 31.296875 
Q 39.15625 29.25 43.1875 25.515625 
Q 47.21875 21.78125 47.21875 15.09375 
Q 47.21875 7.46875 41.1875 3.015625 
Q 35.15625 -1.421875 24.609375 -1.421875 
Q 20.21875 -1.421875 15.453125 -0.5625 
Q 10.6875 0.296875 5.421875 2 
L 5.421875 11.28125 
Q 10.40625 8.6875 15.234375 7.390625 
Q 20.0625 6.109375 24.8125 6.109375 
Q 31.15625 6.109375 34.5625 8.28125 
Q 37.984375 10.453125 37.984375 14.40625 
Q 37.984375 18.0625 35.515625 20.015625 
Q 33.0625 21.96875 24.703125 23.78125 
L 21.578125 24.515625 
Q 13.234375 26.265625 9.515625 29.90625 
Q 5.8125 33.546875 5.8125 39.890625 
Q 5.8125 47.609375 11.28125 51.796875 
Q 16.75 56 26.8125 56 
Q 31.78125 56 36.171875 55.265625 
Q 40.578125 54.546875 44.28125 53.078125 
z
" id="DejaVuSans-115"/>
       <path d="M 56.203125 29.59375 
L 56.203125 25.203125 
L 14.890625 25.203125 
Q 15.484375 15.921875 20.484375 11.0625 
Q 25.484375 6.203125 34.421875 6.203125 
Q 39.59375 6.203125 44.453125 7.46875 
Q 49.3125 8.734375 54.109375 11.28125 
L 54.109375 2.78125 
Q 49.265625 0.734375 44.1875 -0.34375 
Q 39.109375 -1.421875 33.890625 -1.421875 
Q 20.796875 -1.421875 13.15625 6.1875 
Q 5.515625 13.8125 5.515625 26.8125 
Q 5.515625 40.234375 12.765625 48.109375 
Q 20.015625 56 32.328125 56 
Q 43.359375 56 49.78125 48.890625 
Q 56.203125 41.796875 56.203125 29.59375 
z
M 47.21875 32.234375 
Q 47.125 39.59375 43.09375 43.984375 
Q 39.0625 48.390625 32.421875 48.390625 
Q 24.90625 48.390625 20.390625 44.140625 
Q 15.875 39.890625 15.1875 32.171875 
z
" id="DejaVuSans-101"/>
       <path d="M 45.40625 46.390625 
L 45.40625 75.984375 
L 54.390625 75.984375 
L 54.390625 0 
L 45.40625 0 
L 45.40625 8.203125 
Q 42.578125 3.328125 38.25 0.953125 
Q 33.9375 -1.421875 27.875 -1.421875 
Q 17.96875 -1.421875 11.734375 6.484375 
Q 5.515625 14.40625 5.515625 27.296875 
Q 5.515625 40.1875 11.734375 48.09375 
Q 17.96875 56 27.875 56 
Q 33.9375 56 38.25 53.625 
Q 42.578125 51.265625 45.40625 46.390625 
z
M 14.796875 27.296875 
Q 14.796875 17.390625 18.875 11.75 
Q 22.953125 6.109375 30.078125 6.109375 
Q 37.203125 6.109375 41.296875 11.75 
Q 45.40625 17.390625 45.40625 27.296875 
Q 45.40625 37.203125 41.296875 42.84375 
Q 37.203125 48.484375 30.078125 48.484375 
Q 22.953125 48.484375 18.875 42.84375 
Q 14.796875 37.203125 14.796875 27.296875 
z
" id="DejaVuSans-100"/>
       <path d="M 8.015625 75.875 
L 15.828125 75.875 
Q 23.140625 64.359375 26.78125 53.3125 
Q 30.421875 42.28125 30.421875 31.390625 
Q 30.421875 20.453125 26.78125 9.375 
Q 23.140625 -1.703125 15.828125 -13.1875 
L 8.015625 -13.1875 
Q 14.5 -2 17.703125 9.0625 
Q 20.90625 20.125 20.90625 31.390625 
Q 20.90625 42.671875 17.703125 53.65625 
Q 14.5 64.65625 8.015625 75.875 
z
" id="DejaVuSans-41"/>
      </defs>
      <use xlink:href="#DejaVuSans-76"/>
      <use x="55.712891" xlink:href="#DejaVuSans-67"/>
      <use x="125.537109" xlink:href="#DejaVuSans-80"/>
      <use x="185.839844" xlink:href="#DejaVuSans-40"/>
      <use x="224.853516" xlink:href="#DejaVuSans-112"/>
      <use x="288.330078" xlink:href="#DejaVuSans-114"/>
      <use x="327.193359" xlink:href="#DejaVuSans-111"/>
      <use x="388.375" xlink:href="#DejaVuSans-112"/>
      <use x="451.851562" xlink:href="#DejaVuSans-111"/>
      <use x="513.033203" xlink:href="#DejaVuSans-115"/>
      <use x="565.132812" xlink:href="#DejaVuSans-101"/>
      <use x="626.65625" xlink:href="#DejaVuSans-100"/>
      <use x="690.132812" xlink:href="#DejaVuSans-41"/>
     </g>
    </g>
   </g>
  </g>
 </g>
 <defs>
  <clipPath id="p451e424bc6">
   <rect height="266.112" width="357.12" x="57.6" y="41.472"/>
  </clipPath>
 </defs>
</svg>
